<svg class="img-fluid" id="outputsvg" xmlns="http://www.w3.org/2000/svg" width="1600" height="1600" viewBox="0 0 16000 16000"><g id="l6I9bGK5UAkfFpCdiwD7oW1" fill="none" style="transform: none;"><g style="transform: none;"><path id="pdLOyrBvo" d="M 0 8000 l 0 -8000 8000 0 8000 0 0 8000 0 8000 -8000 0 -8000 0 0 -8000 z "></path></g></g><g id="l3XmOrNa808Qw9wjpDwgC0I" fill="rgba(61,61,61,1)" style="transform: none;"><g style="transform: none;"><path id="p18N13Yj7p" d="M 4270 14540 c -80 -5 -156 -11 -170 -13 -14 -3 -68 -12 -120 -21 -316 -54 -541 -118 -860 -243 -205 -80 -493 -238 -708 -388 -723 -504 -1301 -1374 -1268 -1910 23 -393 267 -719 766 -1025 206 -127 452 -254 860 -445 300 -140 334 -157 480 -230 274 -137 465 -245 604 -343 286 -202 329 -217 586 -217 95 0 190 6 225 13 78 17 224 58 302 85 34 12 65 18 69 14 4 -4 -19 -31 -52 -60 -32 -28 -162 -153 -288 -277 -968 -953 -1464 -1705 -1536 -2330 -28 -237 20 -477 143 -715 41 -79 69 -117 132 -181 142 -144 281 -190 503 -165 126 15 192 35 337 106 61 29 112 51 113 50 2 -2 -14 -43 -36 -92 -89 -198 -107 -281 -106 -503 0 -155 3 -187 27 -282 72 -289 243 -584 566 -977 143 -174 394 -451 616 -681 168 -173 548 -586 659 -714 43 -50 116 -134 162 -186 105 -120 184 -217 331 -405 65 -83 130 -166 146 -185 29 -37 79 -104 190 -251 274 -368 633 -732 892 -905 230 -154 410 -222 610 -231 140 -6 208 7 322 62 89 44 117 75 264 297 248 371 448 751 642 1213 30 72 60 148 67 170 7 22 16 45 19 50 4 6 40 111 81 235 40 124 77 234 81 245 4 11 19 65 34 120 15 55 35 129 45 165 34 119 104 428 135 595 9 50 23 124 30 165 14 74 52 332 80 545 13 103 29 249 40 375 15 171 25 572 25 988 l 0 472 25 0 c 13 0 36 -5 52 -11 15 -6 177 -57 358 -114 674 -212 818 -272 1190 -498 352 -214 443 -267 555 -323 113 -56 227 -104 350 -148 54 -19 410 -110 535 -136 50 -11 131 -29 180 -40 148 -34 373 -70 440 -70 266 0 438 142 517 426 19 70 22 103 22 299 -1 194 -4 237 -27 360 -52 279 -114 515 -193 730 -20 55 -41 116 -46 135 -5 19 -16 49 -23 65 -8 17 -46 104 -86 195 -224 511 -551 1054 -939 1559 -52 68 -113 147 -134 175 -284 371 -935 1057 -1386 1461 -598 537 -1163 976 -1774 1381 -111 73 -214 143 -229 155 l -28 22 54 48 c 35 31 60 63 71 93 10 25 25 48 35 51 28 9 520 -26 701 -50 246 -32 334 -45 364 -54 17 -5 66 -19 109 -30 156 -42 393 -174 632 -351 207 -152 283 -214 371 -300 115 -111 164 -137 213 -109 34 20 31 53 -11 96 -31 32 -66 52 -168 94 -30 13 -77 42 -105 65 -44 36 -101 79 -310 234 -110 82 -306 204 -420 260 -186 93 -442 152 -780 180 -186 16 -196 26 -45 45 25 3 162 8 305 11 143 3 274 7 292 8 17 2 111 -1 208 -6 155 -7 188 -12 268 -38 117 -38 214 -88 329 -170 130 -92 237 -196 272 -264 36 -69 105 -136 141 -136 35 0 59 39 45 74 -18 49 -62 95 -134 143 -39 26 -111 83 -161 127 -159 141 -372 264 -525 305 -41 11 -119 25 -172 31 -222 23 -785 3 -1203 -44 -210 -24 -226 -24 -244 3 -38 54 -98 114 -133 132 -27 14 -58 19 -111 19 l -75 0 -51 90 c -28 49 -71 116 -95 147 -57 75 -188 202 -246 238 -77 49 -229 120 -390 184 -253 101 -246 96 -357 223 -112 127 -239 246 -388 364 -140 110 -268 236 -320 313 -23 36 -67 111 -95 166 -72 138 -100 166 -130 130 -19 -23 2 -143 45 -255 38 -100 182 -393 249 -505 22 -38 73 -103 111 -144 64 -68 68 -74 40 -67 -16 4 -43 18 -60 30 -102 78 -648 370 -855 458 -47 20 -142 62 -213 92 -70 31 -144 63 -165 70 -20 8 -82 31 -137 51 -258 96 -589 192 -825 239 -401 79 -555 96 -905 101 -154 2 -345 0 -425 -5 z  m 775 -394 c 649 -72 1219 -238 1860 -541 81 -38 136 -78 124 -90 -6 -5 -61 9 -119 30 -45 17 -120 38 -285 81 -270 71 -694 142 -1015 171 -274 25 -910 24 -1075 0 -66 -10 -194 -29 -285 -43 -566 -85 -1156 -313 -1625 -627 -228 -153 -481 -368 -658 -561 -176 -191 -251 -289 -314 -415 -67 -132 -126 -201 -172 -201 -38 0 -45 12 -43 71 4 167 181 514 419 821 147 189 270 317 533 554 120 108 417 316 598 418 331 187 745 306 1202 345 162 14 680 6 855 -13 z  m -415 -512 c 0 -3 -19 -28 -43 -54 -81 -90 -145 -244 -187 -449 -41 -204 -36 -440 12 -534 10 -21 17 -45 15 -51 -3 -7 -34 -21 -69 -30 -78 -22 -289 -93 -343 -116 -22 -9 -78 -32 -125 -50 -115 -46 -459 -220 -600 -305 -111 -67 -216 -134 -555 -357 -372 -244 -512 -304 -688 -296 -84 3 -103 8 -169 40 -76 38 -158 109 -184 161 -80 153 66 468 369 796 228 246 469 442 807 654 105 66 479 242 650 306 253 94 468 160 715 216 279 64 395 85 395 69 z  m 1114 -75 c 183 -22 303 -40 401 -59 55 -11 126 -25 157 -30 31 -6 175 -40 320 -76 386 -95 831 -244 1421 -474 59 -23 120 -52 135 -65 26 -22 26 -24 10 -42 -10 -11 -41 -25 -70 -32 -194 -47 -352 -111 -958 -386 -585 -266 -992 -403 -1380 -465 -171 -28 -377 -24 -510 9 -120 31 -253 98 -331 168 -133 119 -203 230 -272 431 -66 188 -80 265 -81 422 -1 118 2 144 23 205 59 171 163 270 358 339 62 22 180 49 258 59 70 9 435 6 519 -4 z  m 2455 -1023 c -392 -382 -732 -686 -1242 -1112 -282 -235 -803 -602 -1137 -801 -377 -224 -767 -393 -1010 -438 -47 -8 -106 -20 -131 -26 -26 -6 -102 -10 -169 -10 -185 1 -330 44 -416 123 -54 50 -64 89 -39 156 75 197 413 455 1070 814 160 88 794 408 807 408 3 0 75 33 159 74 219 105 734 339 859 391 30 12 150 62 265 110 240 100 397 164 505 206 41 16 95 38 120 49 25 10 119 48 210 84 91 35 185 74 210 85 30 14 46 16 49 9 2 -6 -47 -61 -110 -122 z  m -3673 -213 c 19 -89 72 -173 178 -281 206 -212 505 -373 721 -388 104 -8 121 -12 104 -28 -8 -7 -52 -28 -99 -46 -515 -198 -968 -462 -1288 -752 -235 -212 -334 -278 -415 -278 -40 0 -152 50 -209 93 -99 75 -278 156 -456 207 -318 89 -490 160 -522 213 -11 18 -20 40 -20 49 0 37 57 135 114 196 232 248 860 618 1566 922 133 57 295 119 312 120 4 0 10 -12 14 -27 z  m 4227 -373 c 14 -58 53 -213 87 -345 34 -132 74 -296 90 -365 15 -69 42 -188 60 -265 17 -77 51 -234 75 -350 24 -115 51 -243 60 -283 19 -90 66 -354 106 -597 16 -99 36 -220 44 -270 8 -49 22 -148 30 -220 8 -71 19 -168 24 -215 33 -279 42 -396 51 -643 23 -688 -43 -1137 -208 -1421 -55 -94 -163 -201 -247 -242 -231 -113 -524 -65 -721 119 -85 79 -125 136 -183 257 -154 324 -197 855 -126 1565 8 83 19 179 25 215 5 36 19 128 30 205 26 180 63 387 106 600 19 94 44 215 55 270 11 55 41 181 65 280 25 99 49 198 54 220 14 68 97 378 200 740 17 61 49 169 71 240 22 72 59 189 81 260 98 315 122 377 138 358 4 -4 19 -55 33 -113 z  m -288 -150 c -8 -22 -37 -131 -65 -242 -28 -111 -67 -263 -87 -337 -19 -75 -44 -167 -54 -206 -24 -93 -85 -308 -103 -365 -8 -25 -24 -79 -36 -120 -12 -41 -37 -122 -55 -180 -18 -58 -56 -179 -85 -270 -29 -91 -58 -178 -65 -195 -7 -16 -25 -68 -40 -115 -15 -47 -37 -112 -50 -145 -68 -177 -137 -354 -149 -380 -7 -16 -26 -61 -42 -100 -43 -106 -179 -377 -247 -495 -156 -267 -307 -425 -460 -481 -65 -24 -84 -24 -148 2 -108 42 -152 98 -168 215 -21 146 17 332 130 639 81 220 359 756 592 1140 244 403 660 1041 847 1301 78 108 154 215 193 273 78 114 121 142 92 61 z  m 912 17 c 21 -18 67 -55 103 -82 617 -468 1262 -1048 1574 -1415 212 -249 297 -370 385 -546 77 -156 102 -247 103 -381 1 -105 -1 -116 -30 -178 -42 -90 -123 -168 -232 -225 l -85 -45 -110 0 c -115 0 -151 9 -271 68 -167 81 -375 272 -575 527 -52 67 -181 247 -221 310 -19 30 -60 93 -90 140 -127 196 -145 238 -233 569 -121 447 -240 850 -331 1116 -30 88 -54 163 -54 168 0 17 33 5 67 -26 z  m -1277 -97 c -22 -31 -32 -48 -170 -295 -39 -71 -87 -155 -105 -185 -18 -30 -70 -118 -115 -195 -160 -272 -490 -796 -650 -1031 -526 -772 -1029 -1349 -1392 -1595 -241 -164 -467 -211 -626 -130 -120 61 -192 158 -199 269 -28 397 602 1123 1878 2169 147 120 208 169 309 245 41 32 118 91 170 133 52 41 106 83 120 92 14 10 108 80 210 156 102 77 211 158 243 180 31 23 87 65 125 92 161 121 217 156 220 141 2 -9 -6 -30 -18 -46 z  m 2890 -911 c 80 -66 179 -148 220 -182 549 -452 1259 -1173 1611 -1637 360 -474 778 -1228 1030 -1858 73 -180 163 -460 193 -597 15 -66 31 -136 36 -155 28 -109 40 -413 20 -520 -23 -121 -89 -216 -163 -234 -67 -16 -182 73 -244 191 -17 32 -59 146 -92 253 -72 232 -119 347 -240 586 -170 337 -393 722 -686 1184 -51 80 -113 181 -139 225 -49 84 -171 284 -271 445 -96 156 -303 519 -348 610 -39 80 -42 92 -48 200 -8 133 -26 189 -118 365 -110 210 -280 461 -480 709 -53 65 -107 133 -121 151 -47 60 -133 160 -224 257 -49 54 -94 104 -98 113 -22 39 28 6 162 -106 z  m -564 -1755 c 177 -147 385 -265 540 -304 86 -22 265 -27 344 -10 133 30 246 108 367 253 43 51 2 102 424 -528 533 -798 722 -1112 987 -1645 219 -441 312 -715 312 -925 0 -94 -10 -134 -46 -186 -36 -52 -93 -73 -179 -66 -73 5 -105 22 -216 116 -90 76 -215 172 -269 207 -25 16 -56 39 -70 51 -14 12 -43 34 -65 49 -22 15 -69 47 -103 72 -162 115 -478 287 -652 355 -115 45 -239 77 -361 92 -314 39 -534 146 -663 325 -73 101 -87 183 -116 650 -5 96 -14 204 -20 240 -24 162 -42 254 -65 331 -29 97 -166 630 -196 764 -25 108 -49 219 -49 222 0 12 29 -7 96 -63 z  m -733 -29 c 3 -6 12 -58 21 -115 9 -58 23 -145 31 -195 9 -49 24 -153 35 -230 10 -77 29 -198 40 -270 31 -193 93 -811 110 -1090 18 -303 32 -835 26 -1000 -16 -422 -29 -641 -47 -785 -11 -85 -24 -195 -30 -245 -14 -128 -43 -308 -99 -625 -76 -427 -219 -1063 -315 -1400 -204 -717 -425 -1199 -655 -1431 -110 -110 -225 -169 -331 -169 -83 0 -210 58 -303 140 -61 54 -68 76 -45 142 46 139 178 426 392 854 151 304 200 429 266 690 55 211 129 654 160 944 6 52 15 136 20 185 18 163 65 676 101 1125 10 124 38 362 60 520 9 70 43 237 60 301 7 25 33 64 72 107 80 87 136 176 181 285 61 146 91 264 151 582 52 277 82 859 72 1381 -6 272 -5 311 8 311 8 0 17 -5 19 -12 z  m -5121 -481 c 13 -149 60 -301 123 -399 144 -224 384 -263 724 -116 112 48 309 164 410 240 88 67 121 86 121 71 0 -10 -34 -51 -136 -160 -34 -36 -109 -120 -168 -187 -320 -367 -786 -829 -1055 -1045 -308 -248 -571 -377 -708 -348 -93 20 -150 76 -194 189 -33 83 -31 231 5 369 30 115 51 182 71 227 7 17 25 59 40 95 64 154 202 396 362 638 162 245 368 515 386 509 7 -2 15 -38 19 -83 z  m 3082 -49 c -4 -15 -40 -93 -80 -175 -41 -83 -74 -152 -74 -155 0 -17 -522 -1053 -640 -1270 -116 -213 -149 -273 -212 -384 -630 -1118 -1007 -1670 -1244 -1821 -89 -56 -134 -39 -199 74 -15 28 -87 139 -159 247 -154 232 -157 236 -213 359 -65 140 -87 227 -87 340 1 115 19 167 100 281 88 126 107 177 107 289 0 149 -48 247 -192 396 -39 41 -71 77 -71 82 0 4 33 22 73 38 257 108 555 381 917 839 200 253 447 610 559 807 18 32 37 61 43 64 21 13 35 -26 41 -115 16 -219 93 -456 184 -569 54 -66 105 -94 184 -100 169 -12 368 107 601 360 152 163 193 215 333 416 21 30 37 28 29 -3 z  m -46 -899 c 33 -269 152 -598 287 -800 149 -222 339 -351 578 -392 101 -17 182 -14 329 13 49 9 91 14 94 11 5 -6 -2 -90 -31 -373 -8 -77 -26 -257 -40 -400 -27 -286 -54 -505 -124 -1035 -32 -238 -49 -348 -97 -620 -3 -19 -14 -84 -24 -145 -23 -143 -81 -416 -132 -630 -166 -693 -359 -1105 -573 -1218 -56 -30 -164 -30 -221 0 -82 44 -191 160 -257 275 -60 105 -340 465 -560 722 -196 229 -271 313 -499 550 -383 398 -541 591 -631 770 l -40 80 26 50 c 15 28 44 74 65 101 43 58 256 360 362 515 256 375 442 674 578 930 195 368 299 572 689 1340 91 179 170 331 175 338 24 29 35 10 46 -82 z "></path></g></g></svg>